<?xml version="1.0" encoding="UTF-8"?>
<svg width="48" height="48" viewBox="0 0 48 48" xmlns="http://www.w3.org/2000/svg">
  <!-- Background Circle - Metal color -->
  <circle cx="24" cy="24" r="22" fill="#34495e" stroke="#2c3e50" stroke-width="2"/>

  <!-- Anvil Shape - Classic metalwork symbol -->
  <g transform="translate(24, 24)">
    <!-- Anvil base -->
    <rect x="-8" y="8" width="16" height="6" fill="#2c3e50" rx="1"/>
    <!-- Anvil body -->
    <rect x="-10" y="0" width="20" height="8" fill="#95a5a6" rx="2"/>
    <!-- Anvil face -->
    <rect x="-12" y="-4" width="24" height="4" fill="#bdc3c7" rx="2"/>

    <!-- Hammer positioned at angle -->
    <g transform="rotate(-30)">
      <!-- Hammer handle -->
      <rect x="8" y="-1" width="12" height="2" fill="#8b4513" rx="1"/>
      <!-- Hammer head -->
      <rect x="6" y="-3" width="8" height="6" fill="#7f8c8d" rx="1"/>
    </g>

    <!-- Sparks/weld effect -->
    <circle cx="8" cy="-2" r="1.5" fill="#f39c12" opacity="0.8"/>
    <circle cx="10" cy="-4" r="1" fill="#e67e22" opacity="0.9"/>
    <circle cx="6" cy="0" r="0.8" fill="#f1c40f" opacity="0.7"/>

    <!-- Additional spark effects -->
    <circle cx="-8" cy="-2" r="0.6" fill="#e74c3c" opacity="0.6"/>
    <circle cx="-6" cy="-4" r="0.8" fill="#f39c12" opacity="0.8"/>
  </g>

  <!-- Gear accent in corner -->
  <g transform="translate(36, 12) scale(0.6)">
    <circle cx="0" cy="0" r="6" fill="none" stroke="#7f8c8d" stroke-width="1.5"/>
    <circle cx="0" cy="0" r="2" fill="#7f8c8d"/>
    <!-- Gear teeth -->
    <rect x="-0.8" y="-8" width="1.6" height="3" fill="#7f8c8d"/>
    <rect x="-0.8" y="5" width="1.6" height="3" fill="#7f8c8d"/>
    <rect x="-8" y="-0.8" width="3" height="1.6" fill="#7f8c8d"/>
    <rect x="5" y="-0.8" width="3" height="1.6" fill="#7f8c8d"/>
  </g>
</svg>